# xmcd
#
# Track frame offsets:
#	150
#	13500
#	23066
#	34104
#	47689
#	61701
#	75355
#
# Disc length: 1168 seconds
#
# Revision: 0
# Processed by: cddbd v1.5.1PL0 Copyright (c) Steve Scherf et al.
# Submitted via: dBpowerAMP V4.0
#
DISCID=41048e07
DTITLE=Marco Tamagni - Amur suta la scendra
DYEAR=1900
DGENRE=Blues
TTITLE0=S'eri li
TTITLE1=Canta par mi
TTITLE2=Bicoca walser
TTITLE3=Ciuk' me un rat
TTITLE4=Ogni di
TTITLE5=Se tic'fùsi stai
TTITLE6=la libertà
EXTD=
EXTT0=
EXTT1=
EXTT2=
EXTT3=
EXTT4=
EXTT5=
EXTT6=
PLAYORDER=
